{"title":"Alice in Wonderland(2010)MPEG-4(720p)[DaScubaDude]","uid":13159449,"size":1081891873,"categoryP":"video","categoryS":"movies","magnet":"?xt=urn:btih:1843f616ec0a04dfab4f0c519f3ebfa2d3ded8c4&amp;dn=Alice+in+Wonderland%282010%29MPEG-4%28720p%29%5BDaScubaDude%5D&amp;tr=udp%3A%2F%2Ftracker.leechers-paradise.org%3A6969&amp;tr=udp%3A%2F%2Fzer0day.ch%3A1337&amp;tr=udp%3A%2F%2Fopen.demonii.com%3A1337&amp;tr=udp%3A%2F%2Ftracker.coppersurfer.tk%3A6969&amp;tr=udp%3A%2F%2Fexodus.desync.com%3A6969","seeders":0,"leechers":0,"uploader":"dascuba","files":1,"time":1452137821,"description":"Nineteen-year-old Alice returns to the magical world from her childhood adventure, where she reunites with her old friends and learns of her true destiny: to end the Red Queen's reign of terror.\r\nDirector: Tim Burton\r\nWriters: Linda Woolverton (screenplay), Lewis Carroll (books)\r\nStars: Mia Wasikowska, Johnny Depp, Helena Bonham Carter \r\n\r\nGeneral\r\nComplete name                            :Alice in WonderlandAliceWonderland_USA_DES_Title33.mp4\r\nFormat                                   : MPEG-4\r\nFormat profile                           : Base Media\r\nCodec ID                                 : isom\r\nFile size                                : 1.01 GiB\r\nDuration                                 : 1h 48mn\r\nOverall bit rate                         : 1 328 Kbps\r\nMovie name                               : AliceWonderland_USA_DES\r\nGenre                                    : Fantasy\r\nWriting application                      : Lavf54.6.100\r\n\r\nVideo\r\nID                                       : 1\r\nFormat                                   : AVC\r\nFormat/Info                              : Advanced Video Codec\r\nFormat profile                           :   \r\nFormat settings, CABAC                   : No\r\nFormat settings, ReFrames                : 6 frames\r\nCodec ID                                 : avc1\r\nCodec ID/Info                            : Advanced Video Coding\r\nDuration                                 : 1h 48mn\r\nBit rate                                 : 1 194 Kbps\r\nWidth                                    : 720 pixels\r\nHeight                                   : 404 pixels\r\nDisplay aspect ratio                     : 16:9\r\nFrame rate mode                          : Constant\r\nFrame rate                               : 29.970 fps\r\nColor space                              : YUV\r\nChroma subsampling                       : 4:2:0\r\nBit depth                                : 8 bits\r\nScan type                                : Progressive\r\nBits/(Pixel*Frame)                       : 0.137\r\nStream size                              : 927 MiB (90%)\r\n\r\nAudio\r\nID                                       : 2\r\nFormat                                   : AAC\r\nFormat/Info                              : Advanced Audio Codec\r\nFormat profile                           : LC\r\nCodec ID                                 : 40\r\nDuration                                 : 1h 48mn\r\nBit rate mode                            : Constant\r\nBit rate                                 : 128 Kbps\r\nChannel(s)                               : 2 channels\r\nChannel positions                        : Front: L R\r\nSampling rate                            : 44.1 KHz\r\nCompression mode                         : Lossy\r\nStream size                              : 99.3 MiB (10%)","torrent":{"xt":"urn:btih:1843f616ec0a04dfab4f0c519f3ebfa2d3ded8c4","amp;dn":"Alice+in+Wonderland%282010%29MPEG-4%28720p%29%5BDaScubaDude%5D","amp;tr":["udp%3A%2F%2Ftracker.leechers-paradise.org%3A6969","udp%3A%2F%2Fzer0day.ch%3A1337","udp%3A%2F%2Fopen.demonii.com%3A1337","udp%3A%2F%2Ftracker.coppersurfer.tk%3A6969","udp%3A%2F%2Fexodus.desync.com%3A6969"],"infoHash":"1843f616ec0a04dfab4f0c519f3ebfa2d3ded8c4","infoHashBuffer":{"type":"Buffer","data":[24,67,246,22,236,10,4,223,171,79,12,81,159,62,191,162,211,222,216,196]},"announce":[],"urlList":[]}}